<?xml version="1.0" encoding="utf-8"?>
<!-- Generator: Adobe Illustrator 25.1.0, SVG Export Plug-In . SVG Version: 6.00 Build 0)  -->
<svg version="1.1" id="Layer_1" xmlns="http://www.w3.org/2000/svg" xmlns:xlink="http://www.w3.org/1999/xlink" x="0px" y="0px"
	 viewBox="0 0 595.28 841.89" style="enable-background:new 0 0 595.28 841.89;" xml:space="preserve">
<style type="text/css">
	.st0{fill:#CD5042;}
	.st1{fill:#CC4737;}
	.st2{fill:#F1D6D6;}
	.st3{fill:none;stroke:#CD5042;stroke-width:8.5039;stroke-miterlimit:10;}
	.st4{fill:#C8322A;}
	.st5{fill:none;stroke:#CD5042;stroke-width:8.5039;stroke-linecap:round;stroke-miterlimit:10;}
</style>
<polygon class="st4" points="359.28,634.29 359.28,634.34 359.08,634.31 "/>
<polygon class="st4" points="359.08,634.31 358.88,634.34 358.88,634.29 "/>
<path class="st0" d="M308.43,518.92c-0.55,3.27-2.19,14.19-16.36,14.19H262.2c-0.45,0-0.7,0-0.7,0h-29.87
	c-14.17,0-15.8-10.93-16.36-14.19c-1.46-8.67,0-117.86,0-134.24c0-16.36,4.37-22.91,14.2-38.19c8.29-12.91,9.6-67.16,9.77-83.64
	c-1.21-1.23-1.93-2.94-1.93-4.8c0-1.76,0.68-3.39,1.76-4.62c-1.08-1.23-1.76-2.86-1.76-4.62c0-1.91,0.78-3.64,2.04-4.92
	c1.28-1.26,3.01-2.04,4.92-2.04h35.2c3.82,0,6.96,3.14,6.96,6.96c0,1.76-0.68,3.39-1.78,4.62c1.11,1.23,1.78,2.86,1.78,4.62
	c0,1.88-0.75,3.57-1.98,4.82c0.2,16.51,1.51,70.7,9.8,83.61c9.82,15.28,14.2,21.83,14.2,38.19
	C308.43,401.07,309.89,510.25,308.43,518.92z"/>
<path class="st2" d="M310.9,388.92c-0.01-1.05-0.04-3.58-0.06-5.1c-0.01-0.72-0.52-1.32-1.2-1.4c-4.66-0.56-21.64-2.09-24.42,4.87
	c-2.09,5.22,0.48,12.1,4.65,14.44c0.94,0.53,1.03,1.92,0.14,2.52c-2.72,1.82-5.25,4.06-6.72,7.37c-1.64,3.71,1.4,9.05,4.71,11.57
	c0.74,0.56,0.74,1.72-0.03,2.24c-4.2,2.87-8.96,8.34-8.29,13.47c0.65,4.94,3.77,9.19,7.59,10.74c0.95,0.38,1.16,1.7,0.39,2.39
	c-1.85,1.65-3.44,3.24-3.97,6.22c-2.06,11.47,15.04,11.76,23.19,11.26c2.34-0.14,4.17-2.16,4.18-4.62c0.06-10.02,0.19-35.04,0.11-45
	C311.07,409.57,310.98,399.24,310.9,388.92z"/>
</svg>
