<svg width="37" height="43" fill="none" xmlns="http://www.w3.org/2000/svg"><path d="M36.918 33.016c0-1.842-3.259-24.582-3.625-27.145a.357.357 0 00-.28-.292L11.149.772c-.24-.056-.463.138-.436.373l1.911 25.303a.35.35 0 01-.38.374c-1.446-.069-6.52.305-8.29 1.456-6.252 4.06-1.981 9.256.31 10.157 2.29.9 4.959 1.123 8.163.153 2.107-.637 3.359-2.564 4.118-4.67.702-1.911-.675-19.08-.941-22.24-.028-.236.196-.415.435-.36l14.234 3.435a.34.34 0 01.267.292l2.193 14.204a.351.351 0 01-.393.402c-1.222-.11-4.652-.333-7.013.665-9.695 4.06-3.359 11.28-.154 12.027 3.204.763 7.925.305 9.92-2.55 1.98-2.868 1.825-4.822 1.825-6.777zM15.475 8.56l-.226-3.755 14.726 3.311.533 4.06L15.475 8.56z" fill="#CE5D5D"/></svg>