<svg width="281" height="46" viewBox="0 0 281 46" fill="none" xmlns="http://www.w3.org/2000/svg">
<path d="M8.42236 14.8779L9.18802 2.07165H0V18.0795V34.8878L0.765669 43.6921H8.42236V32.4866V28.4846V14.8779Z" fill="black"/>
<path d="M11.912 40.1618L12.6777 44.9642L20.3343 44.5244V16.15L23.397 21.0457L24.9284 24.1539L26.4597 26.5551L28.7567 29.7567L31.8194 35.3595C32.585 36.9602 33.6321 38.349 34.1164 39.3614C34.882 40.9622 35.6477 42.563 36.4134 43.3634H44.8357C45.091 42.0294 45.6014 39.0413 45.6014 37.7606C45.6014 36.1599 44.8357 18.5512 44.8357 16.9504V15.3496C44.5805 11.3476 44.2232 3.02355 44.8357 1.74292C45.4483 0.462292 39.4761 1.20933 36.4134 1.74292V14.5492V29.7567C33.0955 24.4207 31.0537 19.3516 27.2254 12.9484C26.6515 11.9886 21.8657 4.6777 19.5687 1.74292H17.2717L14.209 2.54332H12.6777L11.912 3.34371V7.34568V14.5492V23.3535V31.3575V40.1618Z" fill="black"/>
<path d="M98.5389 14.8779L99.3046 2.07165H90.1166V18.0795V34.8878L90.8822 43.6921H98.5389V32.4866V28.4846V14.8779Z" fill="black"/>
<path d="M146.051 41.1976L146.817 46L154.473 45.5602V17.1858L157.536 22.0815L159.067 25.1898L160.599 27.591L162.896 30.7925L165.958 36.3953C166.724 37.9961 167.771 39.3848 168.255 40.3973C169.021 41.998 169.787 43.5988 170.552 44.3992H178.975C179.23 43.0652 179.74 40.0771 179.74 38.7965C179.74 37.1957 178.975 19.587 178.975 17.9862V16.3855C178.72 12.3835 178.362 4.05939 178.975 2.77876C179.587 1.49813 173.615 2.24516 170.552 2.77876V15.5851V30.7925C167.235 25.4566 165.193 20.3874 161.364 13.9843C160.791 13.0244 156.005 5.71353 153.708 2.77876H151.411L148.348 3.57915H146.817L146.051 4.37954V8.38151V15.5851V24.3894V32.3933V41.1976Z" fill="black"/>
<path d="M141.298 14.2149L141.327 14.2799L139.795 15.0803H132.139L131.373 14.2799C130.607 13.4795 128.31 11.8788 126.779 11.0784C125.248 10.278 122.185 9.47759 119.888 10.278C118.05 10.9183 115.549 12.1456 114.528 12.6792C113.763 13.4796 112.078 15.4005 111.466 16.6811C110.7 18.2819 109.934 21.4835 109.934 22.2839C109.934 23.0843 109.934 24.6851 110.7 27.0862C111.466 29.4874 113.763 32.689 114.528 33.4894C115.294 34.2898 119.888 36.691 122.951 36.691C126.013 36.691 126.013 35.8906 128.31 35.0902C130.148 34.4499 132.649 31.0882 133.67 29.4874C132.649 29.4874 130.875 29.883 128.827 30.0854C127.677 30.199 125.248 30.2878 122.951 30.2878C121.113 30.2878 119.122 30.5546 118.357 30.2878L117.591 23.0843C122.185 23.0843 137.498 21.4835 142.858 21.4835C144.405 21.4835 142.858 27.8866 142.858 28.687C142.858 29.4874 138.264 40.6929 132.139 43.0941C126.013 45.4953 125.248 45.4953 121.419 45.4953C117.591 45.4953 116.825 44.6949 112.997 43.0941C109.934 41.8135 107.127 38.2918 106.106 36.691L103.043 29.4874C102.278 26.8194 101.206 20.3629 103.043 15.8807C105.34 10.278 105.34 11.0784 108.403 7.8768C111.466 4.67523 112.997 4.67522 116.825 3.07444C119.888 1.79381 124.737 2.00725 126.779 2.27404C137.432 5.45567 139.766 10.7452 141.298 14.2149Z" fill="black"/>
<path d="M196.424 14.8779L197.19 2.07165H188.002V18.0795V34.8878L188.767 43.6921H196.424V32.4866V28.4846V14.8779Z" fill="black"/>
<path d="M205.611 40.6797L206.377 45.4821L214.033 45.0423V16.6679L217.096 21.5636L218.627 24.6719L220.159 27.073L222.456 30.2746L225.518 35.8774C226.284 37.4782 227.331 38.8669 227.815 39.8793C228.581 41.4801 229.347 43.0809 230.112 43.8813H238.535C238.79 42.5473 239.3 39.5592 239.3 38.2785C239.3 36.6778 238.535 19.0691 238.535 17.4683V15.8675C238.279 11.8656 237.922 3.54147 238.535 2.26084C239.147 0.980206 233.175 1.72724 230.112 2.26084V15.0671V30.2746C226.794 24.9387 224.753 19.8695 220.924 13.4663C220.35 12.5065 215.565 5.19561 213.268 2.26084H210.971L207.908 3.06123H206.377L205.611 3.86162V7.86359V15.0671V23.8715V31.8754V40.6797Z" fill="black"/>
<path d="M278.544 12.1433L278.573 12.2083L277.042 13.0087H269.385L268.619 12.2083C267.854 11.4079 265.557 9.80712 264.025 9.00672C262.494 8.20633 259.431 7.40593 257.134 8.20633C255.297 8.84664 252.796 10.0739 251.775 10.6075C251.009 11.4079 249.325 13.3288 248.712 14.6095C247.946 16.2103 247.181 19.4118 247.181 20.2122C247.181 21.0126 247.181 22.6134 247.946 25.0146C248.712 27.4158 251.009 30.6173 251.775 31.4177C252.54 32.2181 257.134 34.6193 260.197 34.6193C263.26 34.6193 263.26 33.8189 265.557 33.0185C267.394 32.3782 269.896 29.0166 270.916 27.4158C269.896 27.4158 268.121 27.8114 266.073 28.0138C264.924 28.1274 262.494 28.2162 260.197 28.2162C258.359 28.2162 256.369 28.483 255.603 28.2162L254.837 21.0126C259.431 21.0126 274.745 19.4118 280.104 19.4118C281.651 19.4118 280.104 25.815 280.104 26.6154C280.104 27.4158 275.51 38.6213 269.385 41.0225C263.26 43.4236 262.494 43.4236 258.666 43.4236C254.837 43.4236 254.072 42.6232 250.243 41.0225C247.181 39.7418 244.373 36.2201 243.352 34.6193L240.29 27.4158C239.524 24.7478 238.452 18.2913 240.29 13.8091C242.587 8.20633 242.587 9.00672 245.649 5.80515C248.712 2.60357 250.243 2.60357 254.072 1.00278C257.134 -0.277848 261.984 -0.0644093 264.025 0.202388C274.678 3.38402 277.013 8.67352 278.544 12.1433Z" fill="black"/>
<path d="M63.0557 44.0225L48.6837 2.07165H56.8962L67.162 30.9558L78.1121 2.07165H87.0091L69.8995 44.0225H63.0557Z" fill="black"/>
</svg>
