<svg width="285" height="39" viewBox="0 0 285 39" fill="none" xmlns="http://www.w3.org/2000/svg">
<path d="M19 1L9 14.7143H8V1.85714H0V37L9 36.1429V23.2857L21 36.1429L30 35.2857L15 18.1429L27 1H19Z" fill="#0741FF"/>
<path d="M36.65 24.9341V1.87033L29 1V26.2396C29.3 30.3011 32.42 38.3372 42.5 37.989C52.58 37.6409 55.7 30.011 56 26.2396V1.87033H48.35V26.2396C48.05 27.5451 46.46 30.2431 42.5 30.5912C38.54 30.9394 36.95 26.9649 36.65 24.9341Z" fill="#0741FF"/>
<path d="M62 33.0644L62.6136 37L68.75 36.6396V13.3863L71.2045 17.3984L72.4318 19.9457L73.6591 21.9135L75.5 24.5372L77.9545 29.1288C78.5682 30.4406 79.4074 31.5788 79.7955 32.4085L79.7955 32.4085C80.4091 33.7203 81.0227 35.0322 81.6364 35.6881H88.3864C88.5909 34.5949 89 32.1461 89 31.0966C89 29.7847 88.3864 15.3541 88.3864 14.0423V12.7304C88.1818 9.45071 87.8955 2.62898 88.3864 1.57948C88.8773 0.529985 84.0909 1.14219 81.6364 1.57948V12.0744V24.5372C78.9773 20.1643 77.3409 16.0101 74.2727 10.7626C73.8128 9.97595 69.9773 3.98458 68.1364 1.57948H66.2955L63.8409 2.23542H62.6136L62 2.89135V6.17103V12.0744V19.2897V25.8491V33.0644Z" fill="#0741FF"/>
<path d="M124.105 11.0673L124.129 11.1212L122.838 11.7847H116.384L115.738 11.1212C115.093 10.4576 113.156 9.13051 111.865 8.46695C110.574 7.80339 107.992 7.13983 106.056 7.80339C104.507 8.33423 102.398 9.35169 101.538 9.79407C100.892 10.4576 99.4721 12.0502 98.9557 13.1119C98.3102 14.439 97.6647 17.0932 97.6647 17.7568C97.6647 18.4203 97.6647 19.7475 98.3102 21.7381C98.9557 23.7288 100.892 26.383 101.538 27.0466C102.183 27.7102 106.056 29.7008 108.638 29.7008C111.22 29.7008 111.22 29.0373 113.156 28.3737C114.705 27.8429 116.814 25.0559 117.675 23.7288C116.814 23.7288 115.318 24.0568 113.592 24.2246C112.623 24.3188 110.574 24.3924 108.638 24.3924C107.089 24.3924 105.41 24.6136 104.765 24.3924L104.12 18.4203C107.992 18.4203 120.902 17.0932 125.42 17.0932C126.724 17.0932 125.42 22.4017 125.42 23.0653C125.42 23.7288 121.548 33.0186 116.384 35.0093C111.22 37 110.574 37 107.347 37C104.12 37 103.474 36.3364 100.247 35.0093C97.6647 33.9476 95.2979 31.028 94.4373 29.7008L91.8554 23.7288C91.2099 21.5169 90.3062 16.1642 91.8554 12.4483C93.7918 7.80339 93.7918 8.46695 96.3737 5.81271C98.9557 3.15847 100.247 3.15847 103.474 1.83135C106.056 0.769653 110.144 0.946602 111.865 1.16779C120.846 3.80549 122.814 8.19071 124.105 11.0673Z" fill="#0741FF"/>
<path d="M149.655 4.30383C150.993 7.80029 150.696 8.24051 150.993 9.89806L144.304 10.5974L143.635 7.80029C143.412 7.3341 142.564 6.40173 140.959 6.40173C138.952 6.40173 136.276 9.19885 137.614 11.2967C138.952 13.3945 139.621 13.3945 140.29 14.0938C140.29 14.6532 142.966 15.2593 144.304 15.4924C145.641 15.7255 148.585 16.4714 149.655 17.5902C152.331 20.3873 151.662 20.3873 152.331 21.0866C153 21.7859 153 25.2823 153 25.9816C153 26.6808 152.331 29.478 151.662 30.1772C150.993 32.2751 148.986 34.606 147.648 35.7715C146.979 36.4707 141.628 39.9671 135.607 36.4707C130.791 33.6736 130.032 28.7787 130.255 26.6808H137.614C137.391 27.6132 137.785 28.8978 139.621 30.1772C141.628 31.5758 143.126 30.4428 143.635 30.1772C144.48 29.7356 146.177 28.6388 145.641 25.2823C145.106 21.9257 136.021 20.7017 135.607 20.3873C133.154 18.5225 128.917 16.1916 130.255 8.4995C130.985 4.30383 134.033 1.90451 135.607 0.807432C137.614 -0.591063 144.304 0.108151 145.641 0.807432C147.367 1.70948 148.317 2.20606 149.655 4.30383Z" fill="#0741FF"/>
<path d="M165.1 14.5V1H157L158.35 37H165.1V23.05H175.9V37H184V1H175.9V14.5H165.1Z" fill="#0741FF"/>
<path fill-rule="evenodd" clip-rule="evenodd" d="M210.809 38.3208C221.342 38.3208 229.881 29.7821 229.881 19.249C229.881 8.71596 221.342 0.177216 210.809 0.177216C200.276 0.177216 191.737 8.71596 191.737 19.249C191.737 29.7821 200.276 38.3208 210.809 38.3208ZM210.809 32.5993C218.182 32.5993 224.159 26.6222 224.159 19.249C224.159 11.8759 218.182 5.89876 210.809 5.89876C203.436 5.89876 197.459 11.8759 197.459 19.249C197.459 26.6222 203.436 32.5993 210.809 32.5993Z" fill="#0741FF"/>
<circle cx="193.856" cy="4.4154" r="4.23818" fill="#0741FF"/>
<circle cx="194" cy="4" r="2" fill="white"/>
<circle cx="227.762" cy="4.4154" r="4.23818" fill="#0741FF"/>
<circle cx="228" cy="4" r="2" fill="white"/>
<path d="M241.477 19.2557C241.279 16.7711 241.279 6.00445 241.477 0.8282L248.799 0C249.129 9.38627 248.997 28.3659 248.799 30.2293C248.604 32.0699 245.963 33.9562 245.039 34.7844C243.852 35.7506 240.488 37.5175 236.53 36.8549C232.573 36.1924 230.528 30.0913 230 27.1236H236.728C236.728 27.5377 236.926 27.9518 237.124 28.78C237.364 29.7843 238.707 30.4364 240.29 29.6082C241.873 28.78 241.713 22.2099 241.477 19.2557Z" fill="#0741FF"/>
<path d="M255 35.1538V1H271.385C275.262 1 279.923 5.92308 281.769 8.38462C283.154 10.9231 285.462 17.5231 283.615 23.6154C281.308 31.2308 274.846 34 273 35.1538C271.523 36.0769 261.154 36.7692 256.154 37L255 35.1538Z" fill="#0741FF"/>
<path d="M262.154 30.3077V7.92308C267.539 7.23077 278.077 8.43077 277.154 18.7692C276.231 29.1077 266.769 30.7692 262.154 30.3077Z" fill="white"/>
<circle cx="211" cy="19" r="13" fill="white" stroke="#0741FF" stroke-width="4"/>
</svg>
