<?xml version="1.0" encoding="utf-8"?>
<!-- Generator: Adobe Illustrator 25.1.0, SVG Export Plug-In . SVG Version: 6.00 Build 0)  -->
<svg version="1.1" id="Layer_1" xmlns="http://www.w3.org/2000/svg" xmlns:xlink="http://www.w3.org/1999/xlink" x="0px" y="0px"
	 viewBox="0 0 595.28 841.89" style="enable-background:new 0 0 595.28 841.89;" xml:space="preserve">
<style type="text/css">
	.st0{fill:#CD5042;}
	.st1{fill:#CC4737;}
	.st2{fill:#F1D6D6;}
	.st3{fill:none;stroke:#CD5042;stroke-width:8.5039;stroke-miterlimit:10;}
	.st4{fill:#C8322A;}
	.st5{fill:none;stroke:#CD5042;stroke-width:8.5039;stroke-linecap:round;stroke-miterlimit:10;}
</style>
<g>
	<path class="st1" d="M268.26,284.38c0,0-80.68,37.62-80.94,37.73c0.15-0.07-1.41-10.93-1.41-12.31
		c0.03-16.16,14.12-26.73,27.51-33.12c18.82-9,34.54-8.72,45.86-2.44C261.52,275.48,264.72,279.16,268.26,284.38z"/>
	<path class="st1" d="M362.45,608.75c-8.54,4.09-15.34,1.95-20.82-2.93c-9.68-8.63-64.04-136.93-89.69-190.75
		c-0.76-1.59-1.81-3.01-3.11-4.21c-5.93-5.45-24.37-22.67-41.15-41.22c-9.41-10.42-14.81-23.73-17.92-35.81
		c-0.14-0.56,0.14-1.14,0.67-1.39L272.9,294c0.57-0.27,1.25-0.06,1.56,0.49c6.5,11.56,12.92,26.18,15.93,39.12
		c4.52,19.42,1.62,50.78,1.62,54.88c0.02,9.74,8.92,23.72,12.42,32.56c13.64,34.26,62.92,147.24,66.12,169.48
		C371.31,595.72,371.96,604.19,362.45,608.75z"/>
	<path class="st2" d="M308.98,422.8c-0.46-1.06-1.58-3.6-2.25-5.14c-0.32-0.73-1.11-1.1-1.87-0.88c-5.2,1.53-23.93,7.64-23.91,15.95
		c0.02,6.23,5.7,12.04,11.14,12.54c1.22,0.11,1.92,1.48,1.22,2.49c-2.12,3.07-3.85,6.49-3.99,10.5c-0.16,4.5,5.36,8.54,9.97,9.6
		c1.03,0.24,1.52,1.41,0.93,2.29c-3.24,4.8-5.96,12.49-3.05,17.39c2.81,4.72,7.95,7.62,12.68,7.46c1.17-0.04,1.97,1.2,1.44,2.25
		c-1.26,2.51-2.27,4.83-1.56,8.09c2.72,12.56,21.05,5.13,29.5,0.95c2.43-1.2,3.51-4.06,2.47-6.57
		c-4.23-10.18-14.81-35.6-19.17-45.66C318,443.65,313.49,433.22,308.98,422.8z"/>
</g>
</svg>
