<svg xmlns="http://www.w3.org/2000/svg" viewBox="0 0 425 449"><path d="M314.71 117.78l-.23-3.2-.08-.62a7.89 7.89 0 00-6.33-6.48l-21.87-4.14-129.97-28.59c-2.89-.62-5.62 1.72-5.39 4.69l.08 1.09 1.72 24.06 11.72 160.04c-33.51-26.79-88.49-1.02-83.65 44.52 1.09 9.69 4.69 21.56 11.79 28.51 10.54 10.39 31.16 14.06 45.46 12.89 11.95-1.02 23.04-5.94 32.1-13.67 11.17-9.53 20.78-22.1 22.1-37.18 1.33-15-3.05-81.78-7.19-137.7l107.16 22.03 8.05 110.44c-33.43-26.79-88.42-1.02-83.57 44.52 1.02 9.69 4.69 21.56 11.72 28.51 10.62 10.39 31.16 14.06 45.54 12.89 11.87-1.02 22.96-5.94 32.02-13.67 11.17-9.53 20.85-22.1 22.18-37.18 2.02-23.37-10.16-172.94-13.36-211.76zm-131.84 16.17c-.62-8.44-1.25-16.17-1.8-23.04l107.4 23.82 1.72 23.59-107.32-24.37z" fill="#f95c56"/></svg>