<svg xmlns="http://www.w3.org/2000/svg" viewBox="0 0 395 412"><path d="M198.23 262.26s-2.97-156.8-3.65-192.91c-.05-2.66 3.46-3.65 5.26-1.7 4.58 4.96 10.56 11.54 12.41 13.29 22.5 21.47 53.44 34.15 72.88 58.71 13.91 17.57 16.96 45.34 15.56 67.11-.3 4.72-.87 9.43-1.76 14.08-.76 3.93-1.75 7.81-3.03 11.6a70.301 70.301 0 01-3.9 9.32 58.574 58.574 0 01-4.35 7.26c-1.34 1.9-2.8 3.71-4.39 5.4-1.26 1.34-2.59 2.6-4.01 3.76-1.03.84-2.1 1.63-3.23 2.33-.48.3-2.04-.1-1.57-1.68 1.48-5.03 3.08-12.79 3.56-16.29 1.19-8.62 1.65-17.37 1.05-26.06-1.19-17.1-6.74-33.51-16.41-47.68-10.52-15.43-21.39-28.47-38.42-35.7-.86-.36 0 0 .85 83.12.49 47.87 1.94 51.2-.42 78.04-1.33 15.09-12.84 29.3-24.01 38.84-9.07 7.75-20.16 12.68-32.09 13.67-14.34 1.19-34.91-2.52-45.46-12.89-7.09-6.97-10.74-18.79-11.78-28.49-4.83-45.53 53.45-69.9 86.91-43.13z" fill="#f95c56"/></svg>