<svg width="306" height="334" viewBox="0 0 306 334" fill="none" xmlns="http://www.w3.org/2000/svg">
<path d="M6 5.5V333.5C84.4 330.3 115 329.5 120.5 329.5C234.9 328.7 286.833 326.833 298.5 326V3.5L204 0L102.5 5.5H6Z" fill="white"/>
<path d="M67.844 29.7511L59.0883 41.7588H58.2128V30.5016H51.2083V61.2714L59.0883 60.5209V49.2637L69.5951 60.5209L77.4752 59.7704L64.3417 44.7608L74.8485 29.7511H67.844Z" fill="black"/>
<path d="M219.638 29.7511L211.174 41.4253H210.328V30.4807H203.557V60.3958L211.174 59.6662V48.7217L221.331 59.6662L228.948 58.9366L216.252 44.3438L226.409 29.7511H219.638Z" fill="black"/>
<path d="M109.871 29.8764L110.649 60.4866V61.2715H116.876V60.4866V51.0681L123.88 61.2715L130.885 60.4866L122.324 48.7135C122.842 48.7135 124.503 48.3995 126.993 47.1437C129.484 45.8879 130.625 42.9577 130.885 41.6496V37.7252C130.885 34.5857 127.772 29.8764 121.545 29.0916C116.564 28.4637 111.687 29.3532 109.871 29.8764Z" fill="black"/>
<path d="M116 43.7346V34.2382C118.919 33.8658 124.756 34.2382 124.756 38.7071C124.756 43.176 118.919 43.9208 116 43.7346Z" fill="white" stroke="black"/>
<path d="M90.4339 28.8756L77.4756 61.2715H83.9548L87.1943 52.3626H98.5329L101.772 61.2715H107.442L108.252 59.6517L95.2933 28.8756H90.4339Z" fill="black"/>
<path d="M92.0542 37.7844L89.6245 45.4784L95.2938 44.6685L92.0542 37.7844Z" fill="white"/>
<path d="M147.658 28.0922L134.387 61.2714H141.023L144.34 52.1471H155.953L159.271 61.2714H165.078L165.907 59.6125L152.635 28.0922H147.658Z" fill="black"/>
<path d="M149.317 37.2166L146.829 45.0966L152.635 44.2671L149.317 37.2166Z" fill="white"/>
<path fill-rule="evenodd" clip-rule="evenodd" d="M183.044 60.5216C192.024 60.5216 199.304 53.2414 199.304 44.2608C199.304 35.2802 192.024 28 183.044 28C174.063 28 166.783 35.2802 166.783 44.2608C166.783 53.2414 174.063 60.5216 183.044 60.5216ZM183.044 55.6434C189.33 55.6434 194.426 50.5472 194.426 44.2608C194.426 37.9744 189.33 32.8782 183.044 32.8782C176.757 32.8782 171.661 37.9744 171.661 44.2608C171.661 50.5472 176.757 55.6434 183.044 55.6434Z" fill="black"/>
<path d="M182.909 57.0537C190.089 57.0537 195.909 51.2331 195.909 44.053C195.909 36.8729 190.089 31.0522 182.909 31.0522C175.729 31.0522 169.908 36.8729 169.908 44.053C169.908 51.2331 175.729 57.0537 182.909 57.0537Z" fill="white" stroke="black" stroke-width="7"/>
<path d="M248.531 34.7657V29.7511L232.45 30.3083L233.559 60.3958C237.551 60.3958 245.573 59.6529 249.085 59.2815V53.7097L239.104 54.2669V48.1379L249.085 47.5808V42.009L242.431 41.4518L238.549 42.009V35.88L248.531 34.7657Z" fill="black"/>
<path d="M133.584 72.7103L134.933 118.746V119.926H145.719V118.745V104.581L157.854 119.926L169.989 118.746L155.157 101.04C156.056 101.04 158.933 100.567 163.247 98.6788C167.562 96.7902 169.539 92.3834 169.989 90.4161V84.5142C169.989 79.7926 164.595 72.7103 153.809 71.5299C145.18 70.5856 136.731 71.9233 133.584 72.7103Z" fill="black"/>
<path d="M144.202 93.5519V79.27C149.259 78.7099 159.371 79.27 159.371 85.9909C159.371 92.7118 149.259 93.8319 144.202 93.5519Z" fill="white" stroke="black"/>
<path d="M101.381 71.3062L78.9788 119.926H90.1801L95.7807 106.555H115.383L120.984 119.926H130.785L132.185 117.495L109.782 71.3062H101.381Z" fill="black"/>
<path d="M104.181 84.6764L99.981 96.2235L109.782 95.008L104.181 84.6764Z" fill="white"/>
<path d="M55.5696 118.289C56.7899 108.537 52.337 84.6025 50.9755 73.7373C56.6594 71.6455 67.6877 71.812 71.4739 72.2734C75.8426 72.8057 84.5631 76.73 84.4955 88.1687C84.4279 99.6075 71.683 102.205 65.3189 102.074L66.1771 118.808L55.5696 118.289Z" fill="black"/>
<path d="M63.8017 93.6999L62.1952 81.1037C66.1006 80.2283 74.1003 79.9594 74.8563 85.8871C75.6123 91.8147 67.8016 93.5655 63.8017 93.6999Z" fill="white"/>
<path d="M207.794 81.3902H198.316V119.926H186.073L187.258 81.3902H176.99V71.3062H207.794V81.3902Z" fill="black"/>
<path d="M230.896 91.6093L220.395 72.229H207.793L224.595 100.838L225.645 121.141H237.197L238.247 99.9151C245.808 88.1024 251.898 75.9205 253.999 71.3062H242.447L230.896 91.6093Z" fill="black"/>
<path d="M238.04 133.206L223.53 153.305H222.079V134.462H210.472V185.967L223.53 184.71V165.867L240.941 184.71L254 183.454L232.236 158.33L249.647 133.206H238.04Z" fill="#0741FF"/>
<path d="M124.185 160.223L123.904 135.806L112.877 135.564L113.387 157.897C113.524 160.799 113.387 167.086 113.387 169.856C113.387 172.477 115.294 178.238 116.643 180.646C118.149 182.502 122.343 186.331 127.077 186.806C132.994 187.399 135.782 186.394 138.052 185.96C140.322 185.525 144.758 182.48 147.206 178.875C149.163 175.99 150.014 170.599 150.194 168.264L149.577 155.206C149.599 152.587 149.717 147.085 150.016 146.024C150.315 144.963 149.832 139.053 149.553 136.23L139.521 136.268C139.674 143.35 140.07 158.97 140.433 164.799C140.796 170.627 136.92 174.308 134.937 175.419C134.308 175.958 132.217 176.944 128.884 176.578C125.551 176.212 124.56 169.743 124.185 166.416L124.185 160.223Z" fill="#0741FF"/>
<path d="M201.789 150.861L202.558 135.844H193.325V154.615V174.324L194.095 184.648H201.789V173.385V166.816V150.861Z" fill="#0741FF"/>
<path d="M180.999 141.521C182.764 146.133 182.372 146.714 182.764 148.9L173.94 149.822L173.058 146.133C172.764 145.518 171.646 144.288 169.528 144.288C166.881 144.288 163.352 147.978 165.117 150.745C166.881 153.512 167.764 153.512 168.646 154.434C168.646 155.172 172.176 155.971 173.94 156.279C175.705 156.586 179.587 157.57 180.999 159.046C184.529 162.735 183.646 162.735 184.529 163.658C185.411 164.58 185.411 169.192 185.411 170.114C185.411 171.037 184.529 174.726 183.646 175.648C182.764 178.415 180.117 181.49 178.352 183.027C177.47 183.95 170.411 188.561 162.469 183.95C156.116 180.26 155.116 173.804 155.411 171.037H165.117C164.822 172.266 165.342 173.961 167.764 175.648C170.411 177.493 172.388 175.999 173.058 175.648C174.172 175.066 176.411 173.619 175.705 169.192C174.999 164.765 163.015 163.15 162.469 162.735C159.234 160.276 153.646 157.201 155.411 147.055C156.373 141.521 160.393 138.356 162.469 136.909C165.117 135.065 173.94 135.987 175.705 136.909C177.981 138.099 179.234 138.754 180.999 141.521Z" fill="#0741FF"/>
<path d="M53.5234 185.967H64.1852L62.8525 154.31L74.847 185.967L82.8433 184.648L93.5051 152.991L94.8108 185.298H104.951L104.167 160.906L102.834 135.844L89.5069 135.844L77.5124 170.139L65.5179 135.844H52.1907L53.5234 185.967Z" fill="#0741FF"/>
<path d="M77.0502 262.571C89.2057 265.987 100.178 261.52 104.145 258.859C107.575 256.542 114.968 249.073 117.096 237.741C119.755 223.575 115.694 218.992 112.803 213.284C109.911 207.576 99.6424 199.782 91.0951 198.821C82.5478 197.859 73.4194 199.536 65.3716 204.678C57.3238 209.82 52.9945 219.009 52.0335 227.556C51.2646 234.394 54.3415 243.585 55.976 247.325C57.936 250.984 64.8947 259.156 77.0502 262.571Z" fill="#0741FF"/>
<path d="M104.554 224.734C102.861 217.354 94.9113 212.007 91.1481 210.256C85.8722 209.093 77.787 211.615 74.404 213.021C71.8033 215.06 66.3204 219.999 65.1938 223.439C64.0672 226.878 64.2527 233.988 64.4863 237.113C68.0931 244.177 76.5859 249.152 80.3814 250.757C84.4352 251.189 93.3326 251.397 96.4921 248.774C99.6516 246.151 102.583 241.357 103.653 239.288C104.659 237.512 106.248 232.114 104.554 224.734Z" fill="white"/>
<path d="M126.739 260.048C127.713 258.418 102.905 239.891 91.4316 231.985L82.6611 242.5L118.796 268.901C121.739 267.398 125.279 262.492 126.739 260.048Z" fill="#0741FF"/>
<path d="M141.635 232.213L141.297 202.86L128.041 202.569L128.654 229.418C128.819 232.906 129.004 240.703 128.425 243.982C127.845 247.261 130.946 253.871 132.569 256.766C134.378 258.996 139.421 263.601 145.112 264.171C152.225 264.884 155.577 263.676 158.306 263.154C161.034 262.632 166.368 258.971 169.31 254.636C171.663 251.169 172.686 244.687 172.903 241.88L172.161 226.182C172.187 223.034 172.329 216.419 172.688 215.144C173.047 213.868 172.467 206.763 172.132 203.37L160.072 203.416C160.256 211.929 160.732 230.708 161.168 237.715C161.604 244.721 156.945 249.146 154.56 250.482C153.804 251.13 151.291 252.315 147.284 251.875C143.278 251.435 141.373 243.326 140.922 239.327L141.635 232.213Z" fill="#0741FF"/>
<path d="M195.78 221.727L196.906 202.611H183.4V226.506V251.597L184.525 264.739H195.78V250.402V242.038V221.727Z" fill="#0741FF"/>
<path d="M207.722 207.329L208.752 203.193L245.247 203.063L245.875 212.884L244.637 216.09C237.925 227.157 224.356 249.519 223.778 250.429C223.2 251.339 222.987 253.014 222.953 253.738C225.469 253.633 230.914 253.526 232.568 253.938C234.223 254.35 241.735 254.172 245.285 254.032L245.913 265.611C233.163 265.654 207.537 265.535 207.04 264.709C206.543 263.882 206.897 257.058 207.135 253.75L229.334 214.034L208.968 214.669L207.722 207.329Z" fill="#0741FF"/>
<path d="M81.7179 282.564V278.474L68.5198 278.928L69.43 303.471C72.7068 303.471 79.2906 302.865 82.173 302.562V298.017L73.9811 298.472V293.472L82.173 293.018V288.473L76.7117 288.018L73.5259 288.473V283.473L81.7179 282.564Z" fill="black"/>
<path d="M135.756 286.165L136.135 278.474H131.584V288.088V298.183L131.963 303.471H135.756V297.702V294.337V286.165Z" fill="black"/>
<path d="M52.343 288.595L52.31 279.617L47.3446 279.889C48.3742 280.04 47.9037 295.922 47.5398 303.845C48.9805 303.723 51.9905 303.498 52.5053 303.573C53.0201 303.648 52.7907 296.968 52.6116 293.619L59.8293 293.676L60.3664 303.724L62.9403 304.1L65.0101 303.406L64.4467 279.728C63.4914 279.057 60.7693 279.413 59.5277 279.675L59.8824 288.699L52.343 288.595Z" fill="black"/>
<path d="M86.7306 303.471H91.9859L91.329 287.683L97.2412 303.471L101.183 302.813L106.438 287.025L107.082 303.138H112.08L111.693 290.972L111.036 278.474L104.467 278.474L98.555 295.577L92.6428 278.474H86.0737L86.7306 303.471Z" fill="black"/>
<path d="M121.298 298.341L120.317 278.228L115.573 277.816L115.159 303.816L129.535 303.348L129.897 299.088L121.298 298.341Z" fill="black"/>
<path d="M162.069 284.516L162.086 284.556L161.151 285.041H156.475L156.007 284.556C155.54 284.071 154.137 283.101 153.201 282.616C152.266 282.131 150.396 281.646 148.993 282.131C147.871 282.519 146.343 283.262 145.719 283.586C145.252 284.071 144.223 285.235 143.849 286.011C143.381 286.981 142.914 288.921 142.914 289.406C142.914 289.891 142.914 290.861 143.381 292.316C143.849 293.771 145.252 295.711 145.719 296.196C146.187 296.681 148.993 298.136 150.863 298.136C152.734 298.136 152.734 297.651 154.137 297.166C155.259 296.778 156.787 294.741 157.41 293.771C156.787 293.771 155.703 294.011 154.452 294.133C153.75 294.202 152.266 294.256 150.863 294.256C149.741 294.256 148.525 294.418 148.058 294.256L147.59 289.891C150.396 289.891 159.748 288.921 163.021 288.921C163.966 288.921 163.021 292.801 163.021 293.286C163.021 293.771 160.216 300.561 156.475 302.016C152.734 303.471 152.266 303.471 149.928 303.471C147.59 303.471 147.122 302.986 144.784 302.016C142.914 301.24 141.199 299.106 140.576 298.136L138.705 293.771C138.238 292.154 137.583 288.242 138.705 285.526C140.108 282.131 140.108 282.616 141.978 280.676C143.849 278.736 144.784 278.736 147.122 277.765C148.993 276.989 151.954 277.119 153.201 277.28C159.707 279.208 161.133 282.414 162.069 284.516Z" fill="black"/>
<path d="M253.999 280.863H249.198V302.761H242.997L243.597 280.863H238.396V275.132H253.999V280.863Z" fill="black"/>
<path d="M195.378 283.99L195.396 284.03L194.437 284.528H189.641L189.161 284.03C188.682 283.533 187.243 282.539 186.284 282.042C185.324 281.545 183.406 281.048 181.967 281.545C180.816 281.942 179.249 282.705 178.61 283.036C178.13 283.533 177.075 284.726 176.691 285.522C176.212 286.516 175.732 288.505 175.732 289.002C175.732 289.499 175.732 290.493 176.212 291.985C176.691 293.476 178.13 295.464 178.61 295.962C179.089 296.459 181.967 297.95 183.886 297.95C185.804 297.95 185.804 297.453 187.243 296.956C188.394 296.558 189.961 294.47 190.6 293.476C189.961 293.476 188.849 293.722 187.566 293.847C186.846 293.918 185.324 293.973 183.886 293.973C182.734 293.973 181.487 294.139 181.008 293.973L180.528 289.499C183.406 289.499 192.998 288.505 196.355 288.505C197.324 288.505 196.355 292.482 196.355 292.979C196.355 293.476 193.478 300.436 189.641 301.927C185.804 303.419 185.324 303.419 182.926 303.419C180.528 303.419 180.049 302.922 177.651 301.927C175.732 301.132 173.974 298.944 173.334 297.95L171.416 293.476C170.936 291.819 170.265 287.809 171.416 285.025C172.854 281.545 172.854 282.042 174.773 280.053C176.691 278.065 177.651 278.065 180.049 277.07C181.967 276.275 185.005 276.408 186.284 276.573C192.956 278.549 194.419 281.835 195.378 283.99Z" fill="black"/>
<path d="M210.309 277.552L210.816 278.576C210.825 278.427 210.843 278.273 210.872 278.114C211.436 275.019 213.971 275.019 214.817 275.019C215.662 275.019 218.197 276.145 218.197 278.677C218.197 280.703 216.131 281.772 215.098 282.053C214.372 282.198 213.122 281.97 212.159 281.29L222.142 301.467H216.507L213.126 296.121H204.674L202.139 302.874H196.786L202.139 287.118L203.921 282.463C203.788 282.611 203.388 282.856 202.42 283.179C201.068 283.629 199.979 282.804 199.603 282.335C198.946 281.584 197.856 279.69 198.758 278.114C199.885 276.145 200.73 276.145 202.42 276.145C203.773 276.145 204.674 277.645 204.956 278.396L204.885 279.943L205.801 277.552H210.309Z" fill="black"/>
<path d="M208.377 283.816L206.204 290.779L211.275 290.046L208.377 283.816Z" fill="white"/>
<ellipse cx="201.857" cy="279.417" rx="1.44891" ry="1.46602" fill="white"/>
<ellipse cx="214.535" cy="278.318" rx="1.81114" ry="1.83253" fill="white"/>
<path d="M236.032 278.844C236.978 281.326 236.768 281.639 236.978 282.815L232.25 283.311L231.778 281.326C231.62 280.995 231.021 280.334 229.887 280.334C228.468 280.334 226.577 282.319 227.523 283.808C228.468 285.297 228.941 285.297 229.414 285.793C229.414 286.19 231.305 286.62 232.25 286.786C233.196 286.951 235.276 287.481 236.032 288.275C237.923 290.26 237.451 290.26 237.923 290.756C238.396 291.253 238.396 293.734 238.396 294.231C238.396 294.727 237.923 296.712 237.451 297.208C236.978 298.697 235.56 300.352 234.614 301.179C234.141 301.675 230.359 304.157 226.105 301.675C222.701 299.69 222.165 296.216 222.323 294.727H227.523C227.365 295.389 227.644 296.3 228.941 297.208C230.359 298.201 231.419 297.397 231.778 297.208C232.375 296.895 233.574 296.117 233.196 293.734C232.818 291.352 226.397 290.483 226.105 290.26C224.371 288.936 221.377 287.282 222.323 281.822C222.839 278.844 224.992 277.142 226.105 276.363C227.523 275.37 232.25 275.867 233.196 276.363C234.416 277.003 235.087 277.356 236.032 278.844Z" fill="black"/>
<path d="M305.095 137.227V182.727H292.095C291.095 182.727 288.895 181.927 288.095 178.727C287.295 175.527 291.095 172.727 293.095 171.727L290.095 170.227C289.095 169.56 286.895 167.727 286.095 165.727C285.295 163.727 287.761 161.227 289.095 160.227C287.761 160.06 284.895 158.727 284.095 154.727C283.295 150.727 287.761 147.727 290.095 146.727C288.761 146.394 286.295 144.727 287.095 140.727C287.895 136.727 299.428 136.727 305.095 137.227Z" fill="#F8D1D1"/>
<path d="M8.2016e-05 133.227V178.727H13C14 178.727 16.2 177.927 17 174.727C17.8 171.527 14 168.727 12 167.727L15.0001 166.227C16.0001 165.56 18.2001 163.727 19 161.727C19.7999 159.727 17.3333 157.227 16 156.227C17.3334 156.06 20.2001 154.727 21.0001 150.727C21.8001 146.727 17.3334 143.727 15.0001 142.727C16.3334 142.394 18.8001 140.727 18.0001 136.727C17.2001 132.727 5.66675 132.727 8.2016e-05 133.227Z" fill="#F8D1D1"/>
</svg>
