<svg width="234" height="590" viewBox="0 0 234 590" fill="none" xmlns="http://www.w3.org/2000/svg">
<path d="M108.016 527.364L92.9593 499.506C92.4642 498.59 91.9605 499.124 91.7705 499.506L76.7136 527.364C66.2794 529.145 44.8137 531.962 43.4299 532.707C42.9511 532.964 42.7695 533.979 43.4299 534.615L66.8077 556.367C64.9586 566.035 61.6567 585.722 61.6567 587.278C61.6567 588.423 62.8454 588.678 63.2416 588.423L92.9593 574.303C101.28 579.01 118.715 588.728 121.884 589.95C122.553 590.207 123.783 589.444 123.469 588.423L117.922 556.367C125.186 549.625 140.032 535.836 141.3 534.615C142.568 533.394 141.828 532.834 141.3 532.707L108.016 527.364Z" fill="white"/>
<path d="M206.882 73.4418L194.866 51.4001C194.471 50.6755 194.07 51.0982 193.918 51.4001L181.903 73.4418C173.577 74.8509 156.447 77.0801 155.343 77.669C154.961 77.8727 154.816 78.6755 155.343 79.1787L173.998 96.3893C172.523 104.039 169.888 119.615 169.888 120.847C169.888 121.752 170.836 121.954 171.152 121.752L194.866 110.581C201.506 114.304 215.419 121.994 217.948 122.96C218.482 123.164 219.463 122.56 219.213 121.752L214.786 96.3893C220.583 91.055 232.43 80.1449 233.441 79.1787C234.453 78.2125 233.863 77.7696 233.441 77.669L206.882 73.4418Z" fill="white"/>
<path d="M53.1201 141.585L44.7551 126.278C44.4801 125.775 44.2003 126.068 44.0948 126.278L35.7298 141.585C29.933 142.563 18.0076 144.111 17.2388 144.52C16.9728 144.662 16.8719 145.219 17.2388 145.569L30.2265 157.52C29.1992 162.832 27.3648 173.649 27.3648 174.505C27.3648 175.134 28.0252 175.273 28.2453 175.134L44.7551 167.375C49.3779 169.961 59.0636 175.301 60.8247 175.972C61.196 176.114 61.8794 175.694 61.7052 175.134L58.6234 157.52C62.6591 153.816 70.9066 146.24 71.6111 145.569C72.3155 144.898 71.9046 144.59 71.6111 144.52L53.1201 141.585Z" fill="white"/>
<path d="M67.3739 17.7664L57.7923 0.316763C57.4772 -0.256925 57.1567 0.0777261 57.0358 0.316763L47.4541 17.7664C40.8142 18.8819 27.1542 20.6468 26.2736 21.1129C25.9689 21.2743 25.8533 21.9097 26.2736 22.3081L41.1504 35.9332C39.9737 41.9888 37.8724 54.3201 37.8724 55.2952C37.8724 56.0123 38.6289 56.1717 38.881 56.0123L57.7923 47.1679C63.0874 50.1161 74.182 56.2035 76.1992 56.9684C76.6246 57.1298 77.4073 56.6517 77.2078 56.0123L73.6777 35.9332C78.3004 31.7102 87.7476 23.073 88.5545 22.3081C89.3614 21.5432 88.8907 21.1926 88.5545 21.1129L67.3739 17.7664Z" fill="#F95C56"/>
<path d="M143.463 404.585L135.25 389.278C134.98 388.775 134.706 389.068 134.602 389.278L126.389 404.585C120.698 405.563 108.989 407.111 108.234 407.52C107.973 407.662 107.874 408.219 108.234 408.569L120.986 420.52C119.977 425.832 118.176 436.649 118.176 437.505C118.176 438.134 118.825 438.273 119.041 438.134L135.25 430.375C139.789 432.961 149.299 438.301 151.028 438.972C151.392 439.114 152.063 438.694 151.892 438.134L148.867 420.52C152.829 416.816 160.927 409.24 161.618 408.569C162.31 407.898 161.906 407.59 161.618 407.52L143.463 404.585Z" fill="#F95C56"/>
<path d="M180.858 258.522L208.249 218.721C209.149 217.412 208.073 217.118 207.423 217.135L159.109 216.756C149.439 204.095 130.697 177.448 128.724 176.128C128.042 175.671 126.537 176.147 126.131 177.478L112.818 224.061C98.3977 228.434 69.3541 237.958 67.239 239.059C65.6834 239.869 66.1636 241.635 66.7846 241.984L106.618 271.644C106.004 286.077 104.912 316.215 105.455 321.308C105.57 322.382 107.462 323.484 108.631 322.343L148.332 292.26C162.54 297.182 191.591 307.233 194.131 308.061C196.671 308.889 196.918 307.506 196.724 306.711L180.858 258.522Z" fill="#F95C56"/>
<path d="M97.1027 276.288L84.5501 268.207C81.2238 272.469 73.0796 282.641 67.113 289.232C59.6548 297.47 37.4103 329.489 26.2362 348.201C15.0622 366.913 0.952587 411.795 1.18656 413.692C1.37374 415.21 2.33875 414.705 2.79785 414.264C49.1363 332.742 84.8549 303.992 96.9219 299.808L97.1027 276.288Z" fill="#F95C56"/>
</svg>
