<svg width="261" height="44" viewBox="0 0 261 44" fill="none" xmlns="http://www.w3.org/2000/svg">
<path d="M16 4L0 44H8L12 33H26L30 44H37L38 42L22 4H16Z" fill="black"/>
<path d="M205 1L189 41H197L201 30H215L219 41H226L227 39L211 1H205Z" fill="black"/>
<path d="M18 16.5L15 26L22 25L18 16.5Z" fill="white"/>
<path d="M208 15.5L205 25L212 24L208 15.5Z" fill="white"/>
<path d="M41 39.6271L41.7955 44L49.75 43.5995V17.7626L52.9318 22.3054L54.5227 25.0508L56.1136 27.2372L58.5 30.1525L61.6818 35.2542C62.4773 36.7118 63.5651 37.9764 64.0682 38.8983C64.8636 40.3559 65.6591 41.8135 66.4545 42.5424H75.2045C75.4697 41.3277 76 38.6068 76 37.4406C76 35.983 75.2045 19.949 75.2045 18.4914V17.0338C74.9394 13.3897 74.5682 5.80998 75.2045 4.64387C75.8409 3.47776 69.6364 4.15799 66.4545 4.64387V16.3049V30.1525C63.0076 25.2937 60.8864 20.6778 56.9091 14.8473C56.3129 13.9733 51.3409 7.3162 48.9545 4.64387H46.5682L43.3864 5.37269H41.7955L41 6.1015V9.74559V16.4748V24.3219V31.6101V39.6271Z" fill="black"/>
<path d="M230 37.5178L230.705 42L237.75 41.5895V15.1066L240.568 19.763L241.977 22.577L243.386 24.8181L245.5 27.8063L248.318 33.0355C249.023 34.5296 249.986 35.8258 250.432 36.7707C251.136 38.2648 251.841 39.7589 252.545 40.5059H260.295C260.53 39.2609 261 36.4719 261 35.2767C261 33.7826 260.295 17.3478 260.295 15.8537V14.3596C260.061 10.6244 259.732 2.85522 260.295 1.65996C260.859 0.464705 255.364 1.16194 252.545 1.65996V13.6126V27.8063C249.492 22.826 247.614 18.0948 244.091 12.1185C243.563 11.2226 239.159 4.3991 237.045 1.65996H234.932L232.114 2.407H230.705L230 3.15404V6.88923V13.7867V21.83V29.3004V37.5178Z" fill="black"/>
<path d="M83.0104 42H91.0936L90.0832 18L99.1767 42L105.239 41L113.322 17L114.312 41.4932H122L121.405 23L120.395 4.00003L110.291 4L101.198 30L92.104 4H82L83.0104 42Z" fill="black"/>
<path d="M174.18 33.0864L172.671 2.51184L165.374 1.88525L164.736 41.409L186.849 40.6983L187.405 34.2221L174.18 33.0864Z" fill="black"/>
<path d="M143.8 3.84935L144.58 5.40711C144.594 5.18084 144.622 4.94676 144.667 4.70476C145.533 0 149.433 0 150.733 0C152.033 0 155.933 1.71082 155.933 5.56017C155.933 8.63965 152.756 10.2649 151.167 10.6926C150.05 10.9131 148.128 10.5654 146.645 9.53264L162 40.2043H153.333L148.133 32.0779H135.133L131.233 42.3429H123L131.233 18.3913L133.974 11.3159C133.771 11.5407 133.156 11.9136 131.667 12.4035C129.587 13.0878 127.911 11.8332 127.333 11.1203C126.322 9.9798 124.647 7.09991 126.033 4.70476C127.767 1.71082 129.067 1.71082 131.667 1.71082C133.747 1.71082 135.133 3.99192 135.567 5.13247L135.458 7.48485L136.867 3.84935H143.8Z" fill="black"/>
<path d="M140.829 13.3714L137.486 23.9571L145.286 22.8429L140.829 13.3714Z" fill="white"/>
<circle cx="130.8" cy="6.68569" r="2.22857" fill="white"/>
<circle cx="150.3" cy="5.01429" r="2.78571" fill="white"/>
</svg>
