<?xml version="1.0" encoding="utf-8"?>
<!-- Generator: Adobe Illustrator 25.1.0, SVG Export Plug-In . SVG Version: 6.00 Build 0)  -->
<svg version="1.1" id="Layer_1" xmlns="http://www.w3.org/2000/svg" xmlns:xlink="http://www.w3.org/1999/xlink" x="0px" y="0px"
	 viewBox="0 0 595.28 841.89" style="enable-background:new 0 0 595.28 841.89;" xml:space="preserve">
<style type="text/css">
	.st0{fill:#CD5042;}
	.st1{fill:#CC4737;}
	.st2{fill:#F1D6D6;}
	.st3{fill:none;stroke:#CD5042;stroke-width:8.5039;stroke-miterlimit:10;}
	.st4{fill:#C8322A;}
	.st5{fill:none;stroke:#CD5042;stroke-width:8.5039;stroke-linecap:round;stroke-miterlimit:10;}
</style>
<g>
	<path class="st0" d="M269.81,439.53l-3.63-29.79c-0.11-0.87-0.63-1.64-1.4-2.05l-15.1-8.12c-1.27-0.68-2.85-0.26-3.59,0.98
		c-20.96,34.88-87.42,135.78-89.53,222.25c-0.08,3.45,48.9-128.7,112.29-180.87C269.56,441.34,269.92,440.44,269.81,439.53z"/>
	<path id="Path_28_1_" class="st0" d="M293.05,267.37l-11.55,63.82c-0.24,1.32-1.12,2.45-2.34,3l-59.12,26.65
		c-2.06,0.93-2.98,3.35-2.05,5.41c0.37,0.82,1,1.5,1.79,1.92l57.11,30.72c1.19,0.64,1.98,1.82,2.13,3.16l7.08,64.46
		c0.25,2.24,2.27,3.86,4.51,3.62c0.89-0.1,1.73-0.49,2.38-1.11l46.86-44.83c0.97-0.93,2.34-1.32,3.66-1.05l63.5,13.19
		c2.21,0.46,4.38-0.96,4.84-3.17c0.18-0.88,0.07-1.8-0.32-2.61l-28.16-58.42c-0.58-1.21-0.53-2.64,0.13-3.8L415.66,312
		c1.12-1.96,0.44-4.46-1.52-5.58c-0.78-0.45-1.69-0.62-2.58-0.5l-64.26,8.73c-1.33,0.18-2.67-0.31-3.58-1.3l-43.62-47.99
		c-1.52-1.67-4.11-1.8-5.78-0.28C293.66,265.68,293.21,266.49,293.05,267.37z"/>
</g>
</svg>
