<svg width="79" height="60" viewBox="0 0 79 60" fill="none" xmlns="http://www.w3.org/2000/svg">
<path d="M15.6909 4.07733C16.6909 6.57738 16.4686 6.89215 16.6909 8.07733L11.6909 8.57738L11.1909 6.57738C11.0242 6.24404 10.3909 5.57738 9.19086 5.57738C7.69086 5.57738 5.69086 7.57738 6.69086 9.07738C7.69086 10.5774 8.19086 10.5774 8.69086 11.0774C8.69086 11.4774 10.6909 11.9107 11.6909 12.0774C12.6909 12.244 14.8909 12.7774 15.6909 13.5774C17.6909 15.5774 17.1909 15.5773 17.6909 16.0774C18.1909 16.5774 18.1909 19.0774 18.1909 19.5774C18.1909 20.0774 17.6909 22.0774 17.1909 22.5774C16.6909 24.0774 15.1909 25.744 14.1909 26.5774C13.6909 27.0774 9.69086 29.5774 5.19085 27.0774C1.59085 25.0774 1.02419 21.5774 1.19086 20.0774H6.69086C6.52419 20.744 6.8186 21.6625 8.19086 22.5774C9.69086 23.5774 10.811 22.7673 11.1909 22.5774C11.8224 22.2616 13.0909 21.4774 12.6909 19.0774C12.2908 16.6774 6 16 5.19085 15.5773C3.35752 14.244 0.190859 12.5773 1.19085 7.07733C1.7363 4.07733 4.01414 2.36177 5.19085 1.57733C6.69086 0.577377 11.6909 1.07733 12.6909 1.57733C13.9808 2.22232 14.6909 2.57738 15.6909 4.07733Z" fill="#0741FF" stroke="#0741FF" stroke-width="0.2"/>
<path d="M15.6909 35.2482C16.6909 37.7482 16.4686 38.063 16.6909 39.2482L11.6909 39.7482L11.1909 37.7482C11.0242 37.4149 10.3909 36.7482 9.19086 36.7482C7.69086 36.7482 5.69086 38.7482 6.69086 40.2482C7.69086 41.7482 8.19086 41.7482 8.69086 42.2482C8.69086 42.6482 10.6909 43.0815 11.6909 43.2482C12.6909 43.4149 14.8909 43.9482 15.6909 44.7482C17.6909 46.7482 17.1909 46.7482 17.6909 47.2482C18.1909 47.7483 18.1909 50.2482 18.1909 50.7482C18.1909 51.2482 17.6909 53.2482 17.1909 53.7482C16.6909 55.2482 15.1909 56.9149 14.1909 57.7482C13.6909 58.2482 9.69086 60.7482 5.19085 58.2482C1.59085 56.2482 1.02419 52.7482 1.19086 51.2482H6.69086C6.52419 51.9149 6.8186 52.8334 8.19086 53.7482C9.69086 54.7482 10.811 53.9381 11.1909 53.7482C11.8224 53.4324 13.0909 52.6482 12.6909 50.2482C12.2908 47.8482 5.5 46.973 5.19085 46.7482C3.35752 45.4148 0.190859 43.7482 1.19085 38.2482C1.7363 35.2482 4.01414 33.5326 5.19085 32.7482C6.69086 31.7482 11.6909 32.2482 12.6909 32.7482C13.9808 33.3932 14.6909 33.7482 15.6909 35.2482Z" fill="#FF5C56" stroke="#FF5C56" stroke-width="0.2"/>
<path d="M24.5 10L25 2H19V12V22.5L19.5 28H24.5V21V18.5V10Z" fill="#0741FF" stroke="#0741FF" stroke-width="0.2"/>
<path d="M24.5 41L25 33H19V43V53.5L19.5 59H24.5V53V49.5V41Z" fill="#FF5C56" stroke="#FF5C56" stroke-width="0.2"/>
<path d="M28 25.4417L28.5 28.4417L33.5 28.167V10.4417L35.5 13.5L36.5 15.4417L37.5 16.9417L39 18.9417L41 22.4417C41.5 23.4417 42.1838 24.3093 42.5 24.9417C43 25.9417 43.5 26.9417 44 27.4417H49.5C49.6667 26.6084 50 24.7417 50 23.9417C50 22.9417 49.5 11.9417 49.5 10.9417V9.94173C49.3333 7.44172 49.1 2.24172 49.5 1.44172C49.9 0.641721 46 1.10839 44 1.44172V9.44172V18.9417C41.8333 15.6084 40.5 12.4417 38 8.44172C37.6252 7.8421 34.5 3.27505 33 1.44172H31.5L29.5 1.94172H28.5L28 2.44172V4.94172V9.44172V14.9417V19.9417V25.4417Z" fill="#0741FF" stroke="#0741FF" stroke-width="0.2"/>
<path d="M28 56.8834L28.5 59.8835L33.5 59.6087V41.8835L35.5 45L36.5 46.8835L37.5 48.3835L39 50.3835L41 53.8835C41.5 54.8835 42.1838 55.751 42.5 56.3835C43 57.3835 43.5 58.3835 44 58.8835H49.5C49.6667 58.0501 50 56.1835 50 55.3835C50 54.3835 49.5 43.3835 49.5 42.3835V41.3835C49.3333 38.8835 49.1 33.6834 49.5 32.8834C49.9 32.0834 46 32.5501 44 32.8834V40.8834V50.3834C41.8333 47.0501 40.5 43.8834 38 39.8834C37.6252 39.2838 34.5 34.7168 33 32.8834H31.5L29.5 33.3834H28.5L28 33.8834V36.3834V41V46.3834V51.3834V56.8834Z" fill="#FF5C56" stroke="#FF5C56" stroke-width="0.2"/>
<path d="M76.6438 39.5858L76.6626 39.6264L75.6626 40.1264H70.6626L70.1626 39.6264C69.6626 39.1264 68.1626 38.1264 67.1626 37.6264C66.1626 37.1264 64.1626 36.6264 62.6626 37.1264C61.4626 37.5264 59.8292 38.2931 59.1626 38.6264C58.6626 39.1264 57.5626 40.3264 57.1626 41.1264C56.6626 42.1264 56.1626 44.1264 56.1626 44.6264C56.1626 45.1264 56.1626 46.1264 56.6626 47.6264C57.1626 49.1264 58.6626 51.1264 59.1626 51.6264C59.6626 52.1264 62.6626 53.6264 64.6626 53.6264C66.6626 53.6264 66.6626 53.1264 68.1626 52.6264C69.3626 52.2264 70.9959 50.1264 71.6626 49.1264C70.9959 49.1264 69.8374 49.3736 68.5 49.5C67.7493 49.571 66.1626 49.6264 64.6626 49.6264C63.4626 49.6264 62.1626 49.7931 61.6626 49.6264L61.1626 45.1264C64.1626 45.1264 74.1626 44.1264 77.6626 44.1264C78.6727 44.1264 77.6626 48.1264 77.6626 48.6264C77.6626 49.1264 74.6626 56.1264 70.6626 57.6264C66.6626 59.1264 66.1626 59.1264 63.6626 59.1264C61.1626 59.1264 60.6626 58.6264 58.1626 57.6264C56.1626 56.8264 54.3292 54.6264 53.6626 53.6264L51.6626 49.1264C51.1626 47.4598 50.4626 43.4264 51.6626 40.6264C53.1626 37.1264 53.1626 37.6264 55.1626 35.6264C57.1626 33.6264 58.1626 33.6264 60.6626 32.6264C62.6626 31.8264 65.8292 31.9598 67.1626 32.1264C74.119 34.114 75.6437 37.4183 76.6438 39.5858Z" fill="#FF5C56" stroke="#FF5C56" stroke-width="0.2"/>
<path d="M76.6438 8.5858L76.6626 8.62643L75.6626 9.12643H70.6626L70.1626 8.62643C69.6626 8.12643 68.1626 7.12643 67.1626 6.62643C66.1626 6.12643 64.1626 5.62643 62.6626 6.12643C61.4626 6.52643 59.8292 7.2931 59.1626 7.62643C58.6626 8.12643 57.5626 9.32643 57.1626 10.1264C56.6626 11.1264 56.1626 13.1264 56.1626 13.6264C56.1626 14.1264 56.1626 15.1264 56.6626 16.6264C57.1626 18.1264 58.6626 20.1264 59.1626 20.6264C59.6626 21.1264 62.6626 22.6264 64.6626 22.6264C66.6626 22.6264 66.6626 22.1264 68.1626 21.6264C69.3626 21.2264 70.9959 19.1264 71.6626 18.1264C70.9959 18.1264 69.8374 18.3736 68.5 18.5C67.7493 18.571 66.1626 18.6264 64.6626 18.6264C63.4626 18.6264 62.1626 18.7931 61.6626 18.6264L61.1626 14.1264C64.1626 14.1264 74.1626 13.1264 77.6626 13.1264C78.6727 13.1264 77.6626 17.1264 77.6626 17.6264C77.6626 18.1264 74.6626 25.1264 70.6626 26.6264C66.6626 28.1264 66.1626 28.1264 63.6626 28.1264C61.1626 28.1264 60.6626 27.6264 58.1626 26.6264C56.1626 25.8264 54.3292 23.6264 53.6626 22.6264L51.6626 18.1264C51.1626 16.4598 50.4626 12.4264 51.6626 9.62643C53.1626 6.12643 53.1626 6.62643 55.1626 4.62643C57.1626 2.62643 58.1626 2.62643 60.6626 1.62643C62.6626 0.826431 65.8292 0.959764 67.1626 1.12643C74.119 3.11397 75.6437 6.41829 76.6438 8.5858Z" fill="#0741FF" stroke="#0741FF" stroke-width="0.2"/>
</svg>
