<?xml version="1.0" encoding="utf-8"?>
<!-- Generator: Adobe Illustrator 25.1.0, SVG Export Plug-In . SVG Version: 6.00 Build 0)  -->
<svg version="1.1" id="Layer_1" xmlns="http://www.w3.org/2000/svg" xmlns:xlink="http://www.w3.org/1999/xlink" x="0px" y="0px"
	 viewBox="0 0 595.28 841.89" style="enable-background:new 0 0 595.28 841.89;" xml:space="preserve">
<style type="text/css">
	.st0{fill:#CD5042;}
	.st1{fill:#CC4737;}
	.st2{fill:#F1D6D6;}
	.st3{fill:none;stroke:#CD5042;stroke-width:8.5039;stroke-miterlimit:10;}
	.st4{fill:#C8322A;}
	.st5{fill:none;stroke:#CD5042;stroke-width:8.5039;stroke-linecap:round;stroke-miterlimit:10;}
</style>
<path class="st0" d="M290.74,286.32l27.96,56.65c0.58,1.18,1.7,1.99,3,2.18l62.52,9.09c3.27,0.47,4.57,4.49,2.21,6.8l-45.24,44.1
	c-0.94,0.92-1.37,2.23-1.15,3.53l10.68,62.27c0.56,3.25-2.86,5.74-5.78,4.2l-55.92-29.4c-1.16-0.61-2.55-0.61-3.71,0l-55.92,29.4
	c-2.92,1.54-6.34-0.95-5.78-4.2l10.68-62.27c0.22-1.29-0.21-2.61-1.15-3.53l-45.24-44.1c-2.36-2.31-1.06-6.32,2.21-6.8l62.52-9.09
	c1.3-0.19,2.42-1,3-2.18l27.96-56.65C285.06,283.36,289.28,283.36,290.74,286.32z"/>
</svg>
