<svg width="42" height="60" fill="none" xmlns="http://www.w3.org/2000/svg"><path d="M19.214 3.195v38.172s-8.384-4.49-15.279 2.247c-6.894 6.736-.56 12.724 2.237 14.407 2.795 1.684 11.117 1.49 15.093-1.779 1.026-.841 3.727-4.21 3.912-6.456.186-2.246 0-34.428 0-34.428s3.169-.187 9.318 8.045c1.735 2.325 4.844 5.802.932 17.027-.94 2.696 1.491 1.497 3.168-1.684 1.677-3.182 2.96-7.058 3.169-11.976.371-8.795-6.123-12.019-11.46-17.495-3.73-3.826-6.71-7.485-7.361-8.14C21.396-.412 19.4.2 19.213 3.195z" fill="#CE5D5D"/></svg>