<?xml version="1.0" encoding="utf-8"?>
<!-- Generator: Adobe Illustrator 25.1.0, SVG Export Plug-In . SVG Version: 6.00 Build 0)  -->
<svg version="1.1" id="Layer_1" xmlns="http://www.w3.org/2000/svg" xmlns:xlink="http://www.w3.org/1999/xlink" x="0px" y="0px"
	 viewBox="0 0 595.28 841.89" style="enable-background:new 0 0 595.28 841.89;" xml:space="preserve">
<style type="text/css">
	.st0{fill:#CD5042;}
	.st1{fill:#CC4737;}
	.st2{fill:#F1D6D6;}
	.st3{fill:none;stroke:#CD5042;stroke-width:8.5039;stroke-miterlimit:10;}
	.st4{fill:#C8322A;}
	.st5{fill:none;stroke:#CD5042;stroke-width:8.5039;stroke-linecap:round;stroke-miterlimit:10;}
</style>
<g>
	<path class="st0" d="M419.64,572.83c0.43,3.28,2.07,14.21-11.47,18.37l-28.56,8.76c-0.43,0.13-0.67,0.21-0.67,0.21l-28.56,8.76
		c-13.55,4.16-18.31-5.81-19.8-8.77c-3.94-7.86-34.56-112.67-39.36-128.33c-4.8-15.64-2.54-23.19,2.37-40.67
		c4.14-14.78-10.52-67.02-15.18-82.83c-1.51-0.82-2.71-2.24-3.26-4.02c-0.52-1.68-0.35-3.44,0.33-4.94
		c-1.39-0.86-2.52-2.22-3.04-3.9c-0.56-1.83-0.32-3.71,0.5-5.3c0.86-1.58,2.29-2.83,4.11-3.39l33.65-10.32
		c3.65-1.12,7.57,0.96,8.69,4.61c0.52,1.68,0.35,3.44-0.35,4.94c1.42,0.85,2.55,2.22,3.06,3.9c0.55,1.8,0.33,3.63-0.48,5.19
		c5.03,15.72,22.17,67.15,33.89,77.06c13.87,11.72,19.97,16.71,24.77,32.35C385.08,460.16,418.49,564.12,419.64,572.83z"/>
	<path class="st2" d="M379.99,438.84c-0.34-1-1.15-3.39-1.64-4.83c-0.23-0.68-0.9-1.09-1.57-0.96c-4.6,0.91-21.22,4.73-21.71,12.21
		c-0.36,5.61,4.21,11.35,8.9,12.28c1.05,0.21,1.58,1.5,0.91,2.35c-2.03,2.57-3.73,5.49-4.1,9.09c-0.41,4.03,4.14,8.17,8.07,9.54
		c0.88,0.31,1.23,1.41,0.67,2.14c-3.1,4.03-5.93,10.71-3.7,15.38c2.15,4.5,6.43,7.57,10.55,7.85c1.02,0.07,1.63,1.26,1.11,2.16
		c-1.25,2.15-2.26,4.14-1.85,7.14c1.6,11.55,17.95,6.51,25.54,3.51c2.18-0.86,3.29-3.34,2.54-5.69
		c-3.05-9.54-10.69-33.37-13.87-42.81C386.56,458.41,383.27,448.63,379.99,438.84z"/>
</g>
<g>
	<path class="st0" d="M246.01,518.57c-0.89,3.19-3.64,13.89-17.74,12.42l-29.71-3.09c-0.45-0.05-0.7-0.07-0.7-0.07l-29.71-3.09
		c-14.09-1.47-14.59-12.51-14.8-15.81c-0.55-8.77,12.21-117.22,13.91-133.51c1.69-16.27,6.72-22.34,18.08-36.51
		c9.58-11.99,16.5-65.8,18.39-82.17c-1.07-1.35-1.62-3.12-1.43-4.97c0.18-1.75,1.03-3.3,2.23-4.42c-0.95-1.34-1.45-3.03-1.27-4.78
		c0.2-1.9,1.15-3.54,2.53-4.69c1.4-1.12,3.21-1.71,5.11-1.51l35.01,3.65c3.8,0.4,6.6,3.84,6.2,7.64c-0.18,1.75-1.03,3.3-2.25,4.41
		c0.97,1.34,1.48,3.03,1.3,4.78c-0.2,1.87-1.12,3.47-2.47,4.59c-1.51,16.44-5.82,70.47,1.08,84.18
		c8.19,16.21,11.86,23.19,10.16,39.45C258.22,401.35,248.36,510.1,246.01,518.57z"/>
	<path class="st2" d="M166.53,375.34c0.16-1.04,0.54-3.53,0.77-5.05c0.11-0.71,0.69-1.23,1.38-1.22c4.69,0.1,21.72,0.95,23.51,8.23
		c1.34,5.46-2.17,11.91-6.62,13.65c-1,0.39-1.29,1.76-0.48,2.47c2.44,2.18,4.63,4.76,5.62,8.23c1.11,3.9-2.65,8.76-6.28,10.8
		c-0.81,0.45-0.97,1.6-0.28,2.22c3.76,3.42,7.71,9.51,6.33,14.5c-1.33,4.8-5.01,8.58-9.01,9.58c-0.99,0.25-1.39,1.52-0.72,2.32
		c1.6,1.9,2.95,3.68,3.07,6.71c0.44,11.65-16.53,9.55-24.53,7.92c-2.3-0.47-3.82-2.72-3.5-5.16c1.34-9.93,4.7-34.73,6.17-44.58
		C163.48,395.76,165.01,385.55,166.53,375.34z"/>
</g>
<line class="st5" x1="309.2" y1="292.17" x2="327.71" y2="255.61"/>
<line class="st5" x1="284.63" y1="278.54" x2="286.97" y2="237.63"/>
</svg>
